<?xml version="1.0" standalone="no"?>
<!DOCTYPE svg PUBLIC "-//W3C//DTD SVG 20010904//EN"
 "http://www.w3.org/TR/2001/REC-SVG-20010904/DTD/svg10.dtd">
<svg version="1.0" xmlns="http://www.w3.org/2000/svg"
 width="1280.000000pt" height="640.000000pt" viewBox="0 0 1280.000000 640.000000"
 preserveAspectRatio="xMidYMid meet">
<metadata>
Created by potrace 1.15, written by Peter Selinger 2001-2017
</metadata>
<g transform="translate(0.000000,640.000000) scale(0.100000,-0.100000)"
fill="#000000" stroke="none">
<path d="M2655 5955 c-94 -21 -153 -43 -257 -97 -156 -82 -284 -186 -583 -478
-370 -361 -459 -431 -630 -495 -215 -81 -639 -153 -1027 -173 l-133 -7 -8
-290 c-11 -385 -12 -2409 -1 -2600 l9 -150 160 -17 c397 -43 740 -122 931
-214 118 -56 221 -141 492 -407 344 -337 445 -418 626 -502 277 -129 533 -122
1052 30 324 95 535 152 634 170 143 27 511 32 719 10 287 -29 653 -99 942
-180 68 -19 127 -31 130 -27 4 4 9 16 13 27 5 18 -11 26 -177 82 -435 149
-833 248 -1157 289 -102 12 -178 15 -315 11 -185 -5 -217 -10 -733 -106 -410
-76 -681 -67 -863 30 -252 134 -434 470 -364 668 28 79 51 100 179 162 164 79
273 109 411 116 233 11 356 -48 690 -327 197 -165 291 -232 406 -290 330 -165
680 -170 1267 -19 62 16 115 29 118 29 8 0 4 49 -5 54 -4 3 -64 -2 -132 -11
-184 -25 -659 -25 -749 0 -133 35 -310 142 -443 266 -28 25 -123 127 -213 227
-349 387 -432 433 -790 434 -236 0 -336 -29 -639 -186 -238 -123 -293 -144
-453 -178 -216 -46 -384 -33 -525 41 -198 104 -340 335 -316 512 23 166 135
304 313 386 159 74 425 123 564 106 132 -17 221 -55 442 -189 208 -126 393
-206 573 -247 145 -33 273 -46 557 -55 310 -10 467 -25 665 -65 348 -70 585
-172 1060 -455 480 -287 715 -390 1050 -458 190 -40 343 -55 555 -56 l205 -1
123 42 c68 24 242 96 385 162 533 242 709 295 977 294 105 -1 153 -5 214 -22
109 -29 218 -78 306 -137 91 -60 238 -204 309 -301 49 -68 53 -71 76 -61 14 6
25 14 25 18 0 14 -102 176 -154 244 -150 199 -319 318 -520 367 -188 45 -341
37 -816 -41 -489 -82 -515 -84 -815 -85 l-270 0 -95 34 c-300 106 -516 280
-550 444 -15 75 9 209 55 304 45 91 114 155 232 215 210 108 465 159 683 138
197 -20 381 -82 640 -217 425 -222 516 -266 632 -312 273 -108 413 -135 703
-136 193 0 233 3 329 23 216 46 362 110 717 313 386 220 531 284 739 330 346
75 891 -13 1722 -278 115 -37 210 -64 213 -62 2 3 6 15 7 28 3 20 -12 29 -132
80 -375 162 -866 323 -1177 387 -288 58 -489 68 -689 34 -187 -32 -298 -70
-655 -226 -412 -179 -530 -213 -774 -221 -250 -8 -431 34 -588 136 -174 115
-242 248 -218 425 15 109 55 188 133 262 140 134 377 220 705 255 91 10 125 9
216 -4 147 -22 249 -59 541 -193 278 -128 434 -184 575 -208 127 -22 205 -20
287 5 84 25 271 121 419 213 136 86 365 245 365 254 0 4 -7 15 -15 26 -13 17
-19 15 -117 -46 -233 -146 -455 -258 -588 -299 -91 -27 -178 -22 -345 21 -155
40 -275 86 -500 192 -449 212 -622 270 -900 303 -375 44 -687 -11 -1020 -178
-55 -27 -212 -117 -350 -200 -263 -158 -478 -271 -583 -306 -91 -31 -230 -49
-452 -60 -108 -5 -250 -18 -315 -29 -66 -11 -185 -30 -265 -41 -383 -56 -632
-155 -1004 -400 -110 -73 -236 -150 -280 -171 -147 -70 -280 -91 -456 -71
-272 32 -457 118 -631 291 -170 169 -204 357 -103 560 122 244 461 414 824
414 191 0 289 -26 689 -183 423 -167 564 -204 781 -203 250 2 474 78 733 251
58 39 206 150 329 247 123 97 276 211 341 254 121 81 291 169 362 189 93 25
246 9 410 -45 114 -38 312 -134 364 -178 41 -35 45 -36 62 -20 11 10 19 21 19
25 0 14 -195 166 -300 235 -258 169 -477 240 -665 215 -212 -29 -374 -116
-710 -382 -256 -204 -355 -273 -477 -334 -135 -68 -227 -89 -352 -82 -126 7
-241 38 -373 103 -136 65 -231 148 -283 245 -30 56 -32 66 -26 121 29 253 148
453 317 533 120 56 202 68 429 62 164 -4 248 -13 535 -56 430 -63 566 -75 780
-68 398 13 675 125 912 368 91 94 132 148 211 279 58 96 62 106 46 117 -10 7
-23 13 -29 13 -6 0 -37 -37 -68 -83 -206 -303 -443 -467 -743 -512 -238 -36
-419 -14 -1019 125 -430 99 -582 120 -855 120 -196 0 -298 -12 -473 -55 -301
-75 -612 -258 -897 -530 -30 -29 -129 -106 -220 -172 -462 -335 -658 -414
-1070 -433 -469 -22 -694 -111 -1148 -453 -343 -259 -498 -335 -722 -353 -153
-13 -369 30 -517 103 -175 87 -283 217 -344 413 -20 63 -24 97 -24 210 0 127
2 138 27 186 102 193 317 330 598 380 124 22 317 19 442 -6 126 -26 238 -63
523 -173 531 -205 712 -234 947 -152 209 73 341 181 640 525 181 208 283 295
444 373 132 65 178 72 469 71 198 -1 293 -6 400 -21 77 -11 140 -19 141 -19 1
1 4 13 8 28 6 26 4 28 -61 47 -247 74 -531 128 -713 137 -188 10 -420 -40
-593 -127 -125 -64 -230 -140 -472 -343 -82 -70 -188 -152 -235 -184 -277
-188 -530 -187 -876 6 -77 43 -87 52 -112 102 -108 219 115 630 423 780 103
50 182 69 325 76 149 8 275 -9 652 -86 386 -80 459 -90 643 -90 267 0 573 55
1005 180 207 60 576 184 593 200 4 4 5 18 2 32 l-6 25 -82 -24 c-499 -147
-1095 -237 -1437 -218 -241 13 -360 40 -810 187 -287 93 -400 124 -530 143
-116 18 -304 18 -385 0z"/>
</g>
</svg>
